<!-- Created with Inkscape (http://www.inkscape.org/) -->
<svg width="356.56" height="200" version="1.1" viewBox="0 0 356.56 200" xml:space="preserve" xmlns="http://www.w3.org/2000/svg"><g transform="matrix(4.8978 0 0 4.8978 -482.9 -5e3)" fill="#0c2340"><path d="m102.77 1039.9c-0.216 0-0.35333-0.02-0.53067-0.079l-3.3787-4.3653h-0.098667c-0.05867 1.1547-0.09867 2.604-0.11733 4.1107 0.96267 0.4306 2.5933 0.7253 4.1253 0.7253 3.3013 0 5.2267-1.312 5.2267-3.6227 0-4.188-6.1107-4.5213-6.1107-7.5946 0-0.9787 0.78667-1.5467 1.788-1.5467 0.236 0 0.37333 0.039 0.51067 0.1173l3.104 4.1694h0.0987c0.0787-1.448 0.13734-2.956 0.13734-3.9147-1.0213-0.4893-2.2987-0.764-3.6547-0.764-3.064 0-5.0293 1.3907-5.0293 3.6413 0 3.9934 6.1307 4.0134 6.1307 7.244 0 1.232-0.964 1.8787-2.2013 1.8787"/><path d="m117.66 1040c-0.472-0.2747-0.884-0.4893-1.3947-0.744v-11.529h0.688l3.2213 4.208h0.0987c0.0787-1.3307 0.13734-3.4454 0.13734-4.6h-11.749c0 1.1546 0.04 3.2693 0.13734 4.6h0.0987l3.2213-4.208h0.64933v11.529c-0.492 0.2547-0.884 0.4693-1.376 0.744v0.039h6.268z"/><path d="m120.98 1040v0.039h5.7373v-0.039c-0.33466-0.2547-0.688-0.4893-1.14-0.744v-5.148h1.316l1.9653 5.168c-0.29467 0.156-0.76667 0.4693-1.08 0.724v0.039h6.0307v-0.039c-0.33333-0.2547-0.78533-0.548-1.2373-0.8027l-2.22-4.816c-0.84533-0.1946-1.6507-0.332-2.5147-0.4106v-0.059c2.3187-0.2347 4.3227-1.4493 4.3227-3.4453 0-2.036-2.044-3.132-4.716-3.132h-6.464v0.039c0.33333 0.2747 0.668 0.4894 1.1 0.724v11.159c-0.432 0.2547-0.76667 0.4693-1.1 0.744m4.5973-12.273h1.0813c1.2173 0 2.1213 0.9 2.1213 3.0146 0 1.3507-0.29467 2.3094-1.4733 2.9747h-1.7293z"/><path d="m139.82 1027.1c-3.7533 0-6.3853 2.7013-6.3853 6.5573 0 3.8574 2.6133 6.5387 6.3853 6.5387s6.3853-2.6813 6.3853-6.5387c0-3.856-2.632-6.5573-6.3853-6.5573m0 12.685c-1.768 0-2.456-1.7026-2.456-6.1466 0-4.424 0.688-6.1467 2.456-6.1467s2.476 1.7227 2.476 6.1467c0 4.444-0.708 6.1466-2.476 6.1466"/><path d="m159.25 1027.4v-0.039h-3.576v0.039c0.452 0.4893 1.0027 0.9987 1.6107 1.5067v6.9506l-6.3067-8.496h-4.2827v0.039l1.4933 1.7613v9.3574c-0.58934 0.5093-1.12 1.0186-1.572 1.508v0.039h3.536v-0.039c-0.432-0.4894-0.98267-0.9987-1.572-1.508v-8.868l7.7613 10.415h1.336v-11.159c0.60933-0.508 1.14-1.0174 1.572-1.5067"/><path d="m165.66 1034v0.039c0.41333 0.2946 0.884 0.5293 1.4147 0.744v4.66c-0.216 0.2346-0.56934 0.3706-0.92267 0.3706-1.7893 0-2.6733-1.5653-2.6733-6.224 0-4.2093 0.728-6.088 2.732-6.088 0.176 0 0.37333 0.019 0.47066 0.059l3.2427 4.3453h0.0973c0.0787-1.3306 0.13867-2.78 0.13867-3.9146-0.96267-0.5294-2.6133-0.8814-3.8907-0.8814-4.0667 0-6.7 2.5254-6.7 6.5574 0 3.8573 2.436 6.5386 6.3853 6.5386 1.0027 0 2.004-0.2146 2.8493-0.528l1.6107 0.568h0.0787v-5.4626c0.37334-0.2734 0.62934-0.4694 0.904-0.744v-0.039z"/><path d="m109.66 1043.3 3.2413 4.2347h0.0987c0.08-1.3387 0.13867-3.4667 0.13867-4.628h-11.821c0 1.1613 0.04 3.2893 0.13867 4.628h0.0987l3.2427-4.2347h0.652v11.601c-0.49466 0.256-0.88933 0.472-1.384 0.748v0.04h6.3067v-0.04c-0.47467-0.276-0.89067-0.492-1.404-0.748v-11.601z"/><path d="m120.38 1055.9c3.796 0 6.4253-2.6987 6.4253-6.5787s-2.6493-6.5986-6.4253-6.5986-6.424 2.7186-6.424 6.5986 2.628 6.5787 6.424 6.5787m0-12.783c1.78 0 2.4907 1.7334 2.4907 6.184 0 4.472-0.71067 6.1854-2.4907 6.1854-1.7787 0-2.4707-1.7134-2.4707-6.1854 0-4.4506 0.692-6.184 2.4707-6.184"/><path d="m131.01 1055.7h2.036l2.372-9.7893 2.352 9.7893h1.8987l3.5973-11.247c0.75067-0.5706 1.2853-1.024 1.7787-1.516v-0.04h-3.8547v0.04c0.61333 0.6107 1.068 1.004 1.6613 1.516l-2.452 7.82-1.8773-8.608c0.45467-0.256 0.81067-0.492 1.1067-0.728v-0.04h-5.8507v0.04c0.336 0.276 0.612 0.472 1.0867 0.728l0.356 1.4387-1.68 6.992-2.6107-8.4307c0.456-0.256 0.81067-0.492 1.128-0.728v-0.04h-5.872v0.04c0.336 0.276 0.63333 0.472 1.108 0.728z"/><path d="m155.45 1055.7h1.344v-11.227c0.61333-0.512 1.1467-1.024 1.5813-1.5173v-0.039h-3.5973v0.039c0.45467 0.4933 1.008 1.0053 1.6213 1.5173v6.992l-6.3467-8.548h-4.3093v0.039l1.5027 1.7733v9.4147c-0.59333 0.512-1.1267 1.024-1.5813 1.5173v0.039h3.5587v-0.039c-0.436-0.4933-0.98933-1.0053-1.5813-1.5173v-8.9227z"/><path d="m164.32 1043.1c0.23733 0 0.376 0.039 0.51333 0.1187l3.124 4.1946h0.0987c0.0787-1.4573 0.13867-2.9746 0.13867-3.9386-1.028-0.4934-2.3133-0.768-3.6773-0.768-3.084 0-5.06 1.3973-5.06 3.6626 0 4.0187 6.1667 4.0374 6.1667 7.288 0 1.24-0.968 1.8907-2.2133 1.8907-0.21734 0-0.356-0.02-0.53334-0.079l-3.4-4.392h-0.1c-0.0587 1.1614-0.0987 2.6187-0.11866 4.136 0.96933 0.4334 2.6107 0.728 4.152 0.728 3.3213 0 5.2587-1.3186 5.2587-3.6426 0-4.216-6.148-4.5507-6.148-7.6427 0-0.9853 0.79067-1.556 1.7987-1.556"/><path d="m170.46 1020.9h-71.869v1.3707h71.869z"/><path d="m98.596 1061.7h71.869v-1.3707h-71.869z"/></g></svg>
